<svg width="62" height="62" viewBox="0 0 62 62" fill="none" xmlns="http://www.w3.org/2000/svg">
<circle cx="31" cy="31" r="31" fill="#3B008D"/>
<path d="M40.5917 34.3333C41.5857 34.3342 42.5386 34.7297 43.2412 35.4329C43.9437 36.136 44.3383 37.0893 44.3383 38.0833V39.0417C44.3383 40.5317 43.805 41.9733 42.8383 43.105C40.2217 46.16 36.2433 47.6683 31 47.6683C25.7567 47.6683 21.78 46.16 19.17 43.1017C18.2044 41.9706 17.6737 40.5322 17.6733 39.045V38.0817C17.6738 37.0877 18.0688 36.1345 18.7717 35.4317C19.4745 34.7288 20.4277 34.3338 21.4217 34.3333H40.5917ZM40.5917 36.8333H21.42C21.0885 36.8333 20.7705 36.965 20.5361 37.1994C20.3017 37.4339 20.17 37.7518 20.17 38.0833V39.045C20.17 39.9367 20.49 40.8 21.07 41.4783C23.1583 43.9267 26.4367 45.1683 30.9983 45.1683C35.5633 45.1683 38.8417 43.9267 40.9367 41.48C41.5178 40.8005 41.8369 39.9357 41.8367 39.0417V38.0817C41.8362 37.751 41.7048 37.434 41.4711 37.2C41.2375 36.9661 40.9223 36.8342 40.5917 36.8333ZM31 14.3417C32.0944 14.3417 33.178 14.5572 34.189 14.976C35.2001 15.3948 36.1187 16.0086 36.8926 16.7824C37.6664 17.5563 38.2802 18.4749 38.699 19.486C39.1178 20.497 39.3333 21.5807 39.3333 22.675C39.3333 23.7693 39.1178 24.853 38.699 25.864C38.2802 26.8751 37.6664 27.7937 36.8926 28.5676C36.1187 29.3414 35.2001 29.9552 34.189 30.374C33.178 30.7928 32.0944 31.0083 31 31.0083C28.7899 31.0083 26.6703 30.1304 25.1074 28.5676C23.5446 27.0048 22.6667 24.8851 22.6667 22.675C22.6667 20.4649 23.5446 18.3452 25.1074 16.7824C26.6703 15.2196 28.7899 14.3417 31 14.3417ZM31 16.8417C30.234 16.8417 29.4754 16.9926 28.7677 17.2857C28.06 17.5789 27.4169 18.0085 26.8752 18.5502C26.3335 19.0919 25.9039 19.7349 25.6107 20.4427C25.3176 21.1504 25.1667 21.909 25.1667 22.675C25.1667 23.441 25.3176 24.1996 25.6107 24.9073C25.9039 25.6151 26.3335 26.2581 26.8752 26.7998C27.4169 27.3415 28.06 27.7711 28.7677 28.0643C29.4754 28.3575 30.234 28.5083 31 28.5083C32.5471 28.5083 34.0308 27.8938 35.1248 26.7998C36.2188 25.7058 36.8333 24.2221 36.8333 22.675C36.8333 21.1279 36.2188 19.6442 35.1248 18.5502C34.0308 17.4562 32.5471 16.8417 31 16.8417Z" fill="white"/>
</svg>
