<svg width="30" height="30" viewBox="0 0 30 30" fill="none" xmlns="http://www.w3.org/2000/svg">
<path d="M19.6875 23.9125C18.65 23.9125 17.8125 22.8625 17.8125 21.5625C17.8125 20.275 18.65 19.225 19.6875 19.225C20.725 19.225 21.5625 20.275 21.5625 21.5625C21.5625 22.8625 20.725 23.9125 19.6875 23.9125ZM15 14.0625C13.45 14.0625 12.1875 13.0125 12.1875 11.725C12.1875 10.425 13.45 9.37499 15 9.37499C16.55 9.37499 17.8125 10.425 17.8125 11.725C17.8125 13.0125 16.55 14.0625 15 14.0625ZM10.3125 23.9125C9.27502 23.9125 8.43752 22.8625 8.43752 21.5625C8.43752 20.275 9.27502 19.225 10.3125 19.225C11.35 19.225 12.1875 20.275 12.1875 21.5625C12.1875 22.8625 11.35 23.9125 10.3125 23.9125ZM15 10.3125C15.5125 10.3125 15.9375 10.7375 15.9375 11.25C15.9375 11.7625 15.5125 12.1875 15 12.1875C14.4875 12.1875 14.0625 11.7625 14.0625 11.25C14.0625 10.7375 14.4875 10.3125 15 10.3125ZM23.4375 15C23.0375 15 22.65 15.0875 22.3 15.25C21.7 14.4875 20.8875 13.8375 19.9125 13.3375C20.625 12.3375 21.05 11.125 21.05 9.81249V9.73749C22.4125 9.44999 23.4375 8.23749 23.4375 6.77499C23.4375 5.11249 22.075 3.74999 20.4125 3.74999C19.55 3.74999 18.75 4.11249 18.225 4.68749C17.261 4.07479 16.1423 3.74939 15 3.74939C13.8577 3.74939 12.7391 4.07479 11.775 4.68749C11.25 4.11249 10.45 3.74999 9.58752 3.74999C7.92502 3.74999 6.56252 5.11249 6.56252 6.77499C6.56252 8.22499 7.58752 9.43749 8.93752 9.73749V9.81249C8.93752 11.125 9.37502 12.35 10.075 13.3375C9.11252 13.8375 8.30002 14.4875 7.70002 15.25C7.27285 15.0576 6.80422 14.9754 6.33707 15.011C5.86992 15.0467 5.41917 15.1989 5.02612 15.4539C4.63308 15.7089 4.3103 16.0584 4.08735 16.4705C3.8644 16.8826 3.74842 17.344 3.75002 17.8125C3.75002 19.375 5.00002 20.625 6.56252 20.625H6.63752C6.58752 20.925 6.56252 21.25 6.56252 21.5625C6.56252 24.15 8.23752 26.25 10.3125 26.25C11.575 26.25 12.6875 25.4625 13.375 24.2625C13.9 24.3375 14.4375 24.375 15 24.375C15.5625 24.375 16.1 24.3375 16.625 24.2625C17.3125 25.4625 18.425 26.25 19.6875 26.25C21.7625 26.25 23.4375 24.15 23.4375 21.5625C23.4375 21.25 23.4125 20.925 23.3625 20.625H23.4375C25 20.625 26.25 19.375 26.25 17.8125C26.25 16.25 25 15 23.4375 15Z" fill="black"/>
</svg>
