<svg width="30" height="30" viewBox="0 0 30 30" fill="none" xmlns="http://www.w3.org/2000/svg">
<path d="M23.2775 4.0212C23.4249 4.13825 23.5439 4.28706 23.6257 4.45654C23.7075 4.62601 23.75 4.81176 23.75 4.99995V19.5837C23.75 19.6337 23.7471 19.6841 23.7412 19.735C23.7471 19.8225 23.75 19.9108 23.75 19.9999C23.7496 20.7959 23.4959 21.5711 23.0257 22.2133C22.5555 22.8555 21.8931 23.3315 21.1345 23.5723C20.3758 23.8131 19.5602 23.8062 18.8057 23.5527C18.0512 23.2992 17.3969 22.8123 16.9376 22.1622C16.4782 21.5122 16.2376 20.7329 16.2505 19.9371C16.2634 19.1412 16.5292 18.3701 17.0095 17.7354C17.4897 17.1006 18.1595 16.6352 18.9218 16.4063C19.6842 16.1775 20.4996 16.1971 21.25 16.4625V11.575L11.25 13.9087V22.5037C11.249 23.2995 10.9949 24.0745 10.5244 24.7163C10.0539 25.3582 9.39138 25.8337 8.6327 26.0741C7.87403 26.3145 7.05856 26.3073 6.30425 26.0535C5.54995 25.7997 4.89594 25.3126 4.43685 24.6625C3.97776 24.0124 3.73738 23.2331 3.75051 22.4374C3.76364 21.6416 4.02958 20.8707 4.50987 20.2361C4.99015 19.6016 5.65987 19.1362 6.42214 18.9075C7.1844 18.6787 7.99967 18.6984 8.75 18.9637V7.9162C8.74997 7.63398 8.84544 7.36006 9.02088 7.13901C9.19632 6.91795 9.4414 6.76276 9.71625 6.6987L22.2162 3.78245C22.3979 3.74023 22.5867 3.7392 22.7688 3.77943C22.951 3.81966 23.1218 3.90013 23.2687 4.01495L23.2775 4.0212Z" fill="black"/>
</svg>
