<svg width="30" height="30" viewBox="0 0 30 30" fill="none" xmlns="http://www.w3.org/2000/svg">
<path d="M11.2426 2.66245C11.1968 2.41648 11.0571 2.19796 10.8532 2.05309C10.6492 1.90823 10.3968 1.84838 10.1495 1.8862C9.92848 1.92004 9.72757 2.0338 9.58484 2.2059C9.44211 2.378 9.36749 2.59649 9.37512 2.81995C7.10074 3.3787 5.65512 4.50745 4.80012 5.89495C3.94512 7.28245 3.74637 8.82557 3.74637 10.0724V10.6649L2.40762 12.5193C2.18802 12.8233 2.03144 13.1682 1.94708 13.5336C1.86272 13.899 1.85229 14.2776 1.91641 14.6471C1.98053 15.0166 2.11789 15.3695 2.32042 15.6851C2.52295 16.0008 2.78656 16.2727 3.09574 16.4849L14.2145 24.1181C16.2454 25.5121 18.6511 26.258 21.1145 26.2574H23.9251C24.5309 26.2572 25.1294 26.1257 25.6795 25.8722C26.2296 25.6186 26.7183 25.249 27.1121 24.7886C27.5058 24.3283 27.7952 23.7881 27.9603 23.2054C28.1255 22.6226 28.1625 22.0109 28.0689 21.4124C27.7426 19.3706 25.9632 17.9587 24.3376 17.2406C23.7357 16.9762 23.2276 16.6124 22.8939 16.1212L18.962 9.35245C19.196 9.30398 19.4017 9.16569 19.5349 8.96728C19.6681 8.76887 19.7182 8.52614 19.6745 8.2912C19.6287 8.0456 19.4893 7.82739 19.2857 7.68257C19.0821 7.53776 18.8303 7.47766 18.5832 7.51495C15.077 8.06995 11.8145 5.81995 11.2426 2.66245ZM6.39762 6.87745C6.73137 6.33745 7.21324 5.81807 7.93137 5.3887L10.1251 9.18932C10.223 9.359 10.2844 9.54726 10.3053 9.74204C10.3262 9.93682 10.3062 10.1338 10.2465 10.3204C10.1868 10.507 10.0888 10.6791 9.9588 10.8256C9.82877 10.9721 9.66955 11.0898 9.49137 11.1712L6.97324 12.3224L5.62512 11.3924V10.0724C5.62512 8.99995 5.80137 7.85245 6.39949 6.87745M13.6839 16.9406L9.18762 13.8468L13.8076 11.4131C14.1291 11.2436 14.5037 11.2052 14.8529 11.3058C15.2021 11.4065 15.4988 11.6385 15.6807 11.9531L16.6914 13.7024C16.7861 13.8664 16.8468 14.0478 16.8698 14.2357C16.8927 14.4237 16.8775 14.6144 16.8249 14.7963C16.7724 14.9782 16.6837 15.1476 16.5641 15.2944C16.4445 15.4412 16.2964 15.5624 16.1289 15.6506L13.6839 16.9406ZM4.46262 12.8718L16.2864 21.0093C17.6933 21.9783 19.3612 22.4975 21.0695 22.4981H26.2032C26.101 23.028 25.8175 23.5058 25.4015 23.8496C24.9856 24.1934 24.4629 24.3818 23.9232 24.3824H21.1107C19.027 24.3829 16.992 23.752 15.2739 22.5731L4.15512 14.9381C4.05211 14.8673 3.96429 14.7766 3.89684 14.6714C3.82939 14.5661 3.78366 14.4485 3.76235 14.3253C3.74104 14.2021 3.74457 14.076 3.77274 13.9542C3.8009 13.8324 3.85314 13.7175 3.92637 13.6162L4.46262 12.8718Z" fill="black"/>
</svg>
