<svg width="30" height="24" viewBox="0 0 30 24" fill="none" xmlns="http://www.w3.org/2000/svg">
<path d="M3.49686 17.4939C5.45155 19.1861 8.55936 21.3611 11.2828 20.9486C11.5687 20.9064 11.85 20.8314 12.1266 20.7376C11.6953 20.1611 11.3156 19.5939 10.9922 19.0782C9.96561 17.4376 9.64218 15.5532 9.77811 13.7532C8.81249 13.9454 7.94061 14.3626 7.21405 14.9439C6.90936 15.1876 6.44999 15.0048 6.5203 14.6157C6.8203 13.0454 8.06718 11.7611 9.71718 11.5079C9.83905 11.4892 9.96561 11.4751 10.0875 11.4704L10.9969 5.31574C11.0906 4.66886 11.3719 3.78293 12.1687 3.16418C13.0406 2.49386 14.5547 1.73449 17.025 1.50949L16.9125 1.41105C15.9656 0.679801 13.5187 -0.538949 8.23593 0.262613C2.95311 1.06418 0.960927 2.95324 0.267177 3.93293C-1.055e-05 4.30793 -0.0375106 4.78136 0.0281144 5.24074L1.16249 12.9423C1.4203 14.6907 2.1703 16.3454 3.49686 17.4985V17.4939ZM7.6078 7.20011C7.81405 7.0548 8.11405 7.10636 8.16093 7.3548C8.16561 7.37824 8.1703 7.40636 8.17499 7.4298C8.32499 8.45168 7.63124 9.39855 6.62343 9.55324C5.61561 9.70793 4.67811 9.00011 4.52811 7.98293C4.52343 7.95949 4.52343 7.93136 4.51874 7.90793C4.49061 7.6548 4.76249 7.51418 5.00155 7.59386C5.42343 7.73449 5.8828 7.77668 6.34686 7.70636C6.81093 7.63605 7.24218 7.45793 7.60311 7.20011H7.6078ZM12.2625 18.2814C13.6406 20.4798 15.9891 23.4798 18.7125 23.8923C21.4359 24.3048 24.5484 22.1345 26.4984 20.4376C27.825 19.2892 28.575 17.6345 28.8328 15.8814L29.9672 8.1798C30.0328 7.72043 29.9953 7.24699 29.7281 6.87199C29.0344 5.8923 27.0422 4.00324 21.7594 3.20168C16.4766 2.40011 14.0344 3.61886 13.0875 4.35011C12.7219 4.63136 12.5484 5.07199 12.4828 5.53136L11.3484 13.2329C11.0906 14.9814 11.3297 16.7861 12.2672 18.2814H12.2625ZM18.9609 11.0298C18.6 10.772 18.1734 10.5939 17.7047 10.5236C17.2359 10.4532 16.7766 10.4954 16.3594 10.6361C16.1203 10.7157 15.8484 10.5751 15.8766 10.322C15.8812 10.2986 15.8812 10.2704 15.8859 10.247C16.0359 9.22511 16.9734 8.52199 17.9812 8.67668C18.9891 8.83136 19.6828 9.77824 19.5328 10.8001C19.5281 10.8236 19.5234 10.8517 19.5187 10.8751C19.4719 11.1236 19.1719 11.1751 18.9656 11.0298H18.9609ZM25.3453 11.7564C25.2984 12.0048 24.9984 12.0564 24.7922 11.9111C24.4312 11.6532 24.0047 11.4751 23.5359 11.4048C23.0672 11.3345 22.6078 11.3767 22.1906 11.5173C21.9516 11.597 21.6797 11.4564 21.7078 11.2032C21.7125 11.1798 21.7125 11.1517 21.7172 11.1282C21.8672 10.1064 22.8047 9.40324 23.8125 9.55793C24.8203 9.71261 25.514 10.6595 25.364 11.6814C25.3594 11.7048 25.3547 11.7329 25.35 11.7564H25.3453ZM24.8437 16.4157C23.925 18.5111 21.7125 19.8142 19.3687 19.4579C17.025 19.1017 15.2859 17.1986 15.0094 14.9251C14.9625 14.5361 15.4266 14.3579 15.7219 14.6111C16.8422 15.5861 18.2344 16.2657 19.8 16.5001C21.3656 16.7345 22.8984 16.5048 24.2484 15.9001C24.6047 15.7407 24.9984 16.0501 24.8391 16.4111L24.8437 16.4157Z" fill="black"/>
</svg>
